<svg xmlns="http://www.w3.org/2000/svg" xmlns:xlink="http://www.w3.org/1999/xlink" width="1187.6" height="731.003" viewBox="0 0 1187.6 731.003">
  <defs>
    <filter id="Rectángulo_59636" x="256" y="77" width="633" height="159" filterUnits="userSpaceOnUse">
      <feOffset dy="8" input="SourceAlpha"/>
      <feGaussianBlur stdDeviation="3" result="blur"/>
      <feFlood flood-opacity="0.161"/>
      <feComposite operator="in" in2="blur"/>
      <feComposite in="SourceGraphic"/>
    </filter>
    <clipPath id="clip-path">
      <path id="Trazado_212702" data-name="Trazado 212702" d="M281.022,330.254a6.768,6.768,0,1,0,6.768-6.768,6.767,6.767,0,0,0-6.768,6.768" transform="translate(-281.022 -323.486)" fill="#c148dc"/>
    </clipPath>
    <clipPath id="clip-path-4">
      <rect id="Rectángulo_46170" data-name="Rectángulo 46170" width="36.189" height="41.003" fill="#13b0a3"/>
    </clipPath>
  </defs>
  <g id="Grupo_180804" data-name="Grupo 180804" transform="translate(-202.5 -523)">
    <text id="Pertenecen_al" data-name="Pertenecen al" transform="translate(367.5 818)" fill="#12263f" font-size="23" font-family="Roboto-Regular, Roboto"><tspan x="0" y="24">Pertenecen al</tspan></text>
    <text id="Se_agrupan_en" data-name="Se agrupan en" transform="translate(635.5 818)" fill="#12263f" font-size="23" font-family="Roboto-Regular, Roboto"><tspan x="0" y="24">Se agrupan en</tspan></text>
    <text id="Se_fundamentan" data-name="Se fundamentan" transform="translate(1092.5 818)" fill="#12263f" font-size="23" font-family="Roboto-Regular, Roboto"><tspan x="0" y="24">Se fundamentan</tspan></text>
    <g transform="matrix(1, 0, 0, 1, 202.5, 523)" filter="url(#Rectángulo_59636)">
      <rect id="Rectángulo_59636-2" data-name="Rectángulo 59636" width="615" height="141" rx="17" transform="translate(265 78)" fill="#32d9cb"/>
    </g>
    <rect id="Rectángulo_59635" data-name="Rectángulo 59635" width="604" height="133" rx="17" transform="translate(473.5 605)" fill="#fff"/>
    <g id="Grupo_180656" data-name="Grupo 180656">
      <rect id="Rectángulo_59638" data-name="Rectángulo 59638" width="249" height="64" rx="9" transform="translate(291.5 883)" fill="#7f0f98"/>
      <rect id="Rectángulo_59637" data-name="Rectángulo 59637" width="238" height="56" rx="9" transform="translate(297.5 887)" fill="#fff"/>
    </g>
    <g id="Grupo_180659" data-name="Grupo 180659" transform="translate(356.647 112.236)">
      <rect id="Rectángulo_59638-2" data-name="Rectángulo 59638" width="319" height="91" rx="9" transform="translate(291.853 882.764)" fill="#7f0f98"/>
      <rect id="Rectángulo_59637-2" data-name="Rectángulo 59637" width="308" height="83" rx="9" transform="translate(297.853 886.764)" fill="#fff"/>
    </g>
    <g id="Grupo_180665" data-name="Grupo 180665">
      <line id="Línea_612" data-name="Línea 612" y2="37.5" transform="translate(783 742)" fill="none" stroke="#757070" stroke-linecap="round" stroke-width="3"/>
      <line id="Línea_615" data-name="Línea 615" y2="24" transform="translate(783 577)" fill="none" stroke="#757070" stroke-linecap="round" stroke-width="3"/>
      <line id="Línea_613" data-name="Línea 613" x2="363" transform="translate(420 779.5)" fill="none" stroke="#757070" stroke-linecap="round" stroke-width="3"/>
      <line id="Línea_616" data-name="Línea 616" x2="362" transform="translate(783 779.5)" fill="none" stroke="#757070" stroke-linecap="round" stroke-width="3"/>
      <line id="Línea_614" data-name="Línea 614" y1="33.5" transform="translate(416 849.5)" fill="none" stroke="#757070" stroke-width="3"/>
      <line id="Línea_622" data-name="Línea 622" x1="27" transform="translate(622 923.25)" fill="none" stroke="#757070" stroke-width="3"/>
      <line id="Línea_624" data-name="Línea 624" x1="24" transform="translate(1084 916.25)" fill="none" stroke="#757070" stroke-width="3"/>
      <line id="Línea_625" data-name="Línea 625" x1="24" transform="translate(1084 1003.25)" fill="none" stroke="#757070" stroke-width="3"/>
      <line id="Línea_626" data-name="Línea 626" x1="24" transform="translate(1084 1086)" fill="none" stroke="#757070" stroke-linecap="round" stroke-width="3"/>
      <line id="Línea_623" data-name="Línea 623" x1="27" transform="translate(622 1053.5)" fill="none" stroke="#757070" stroke-linecap="round" stroke-width="3"/>
      <line id="Línea_618" data-name="Línea 618" y1="202" transform="translate(622 851.5)" fill="none" stroke="#757070" stroke-width="3"/>
      <line id="Línea_627" data-name="Línea 627" y1="202" transform="translate(607 851.5)" fill="none" stroke="#757070" stroke-width="3" stroke-dasharray="5"/>
      <line id="Línea_628" data-name="Línea 628" y2="241" transform="translate(1071 848.5)" fill="none" stroke="#757070" stroke-width="3" stroke-dasharray="5"/>
      <line id="Línea_617" data-name="Línea 617" y1="36" transform="translate(1145 779.5)" fill="none" stroke="#757070" stroke-width="3"/>
      <line id="Línea_621" data-name="Línea 621" y1="235" transform="translate(1084 850.5)" fill="none" stroke="#757070" stroke-linecap="square" stroke-width="3"/>
      <line id="Línea_620" data-name="Línea 620" y1="36" transform="translate(420 779.5)" fill="none" stroke="#757070" stroke-width="3"/>
    </g>
    <g id="Grupo_180658" data-name="Grupo 180658" transform="translate(356.647 -0.764)">
      <rect id="Rectángulo_59638-3" data-name="Rectángulo 59638" width="319" height="91" rx="9" transform="translate(291.853 882.764)" fill="#7f0f98"/>
      <rect id="Rectángulo_59637-3" data-name="Rectángulo 59637" width="308" height="83" rx="9" transform="translate(297.853 886.764)" fill="#fff"/>
    </g>
    <g id="Grupo_180660" data-name="Grupo 180660" transform="translate(816 -2)">
      <rect id="Rectángulo_59638-4" data-name="Rectángulo 59638" width="200" height="64" rx="9" transform="translate(291.5 883)" fill="#7f0f98"/>
      <rect id="Rectángulo_59637-4" data-name="Rectángulo 59637" width="189" height="56" rx="9" transform="translate(297.5 887)" fill="#fff"/>
    </g>
    <g id="Grupo_180661" data-name="Grupo 180661" transform="translate(816 83)">
      <rect id="Rectángulo_59638-5" data-name="Rectángulo 59638" width="200" height="64" rx="9" transform="translate(291.5 883)" fill="#7f0f98"/>
      <rect id="Rectángulo_59637-5" data-name="Rectángulo 59637" width="189" height="56" rx="9" transform="translate(297.5 887)" fill="#fff"/>
    </g>
    <g id="Grupo_180662" data-name="Grupo 180662" transform="translate(816 168)">
      <rect id="Rectángulo_59638-6" data-name="Rectángulo 59638" width="200" height="64" rx="9" transform="translate(291.5 883)" fill="#7f0f98"/>
      <rect id="Rectángulo_59637-6" data-name="Rectángulo 59637" width="189" height="56" rx="9" transform="translate(297.5 887)" fill="#fff"/>
    </g>
    <g id="Grupo_180666" data-name="Grupo 180666">
      <g id="Grupo_180651" data-name="Grupo 180651" transform="translate(319.915 821.232)">
        <g id="Grupo_175269" data-name="Grupo 175269" clip-path="url(#clip-path)">
          <rect id="Rectángulo_58132" data-name="Rectángulo 58132" width="19.124" height="19.124" transform="translate(-6.743 6.19) rotate(-42.553)" fill="#c148dc"/>
        </g>
      </g>
      <path id="Trazado_216472" data-name="Trazado 216472" d="M279.495,306.241c-.18,0-.361-.01-.546-.01-.473,0-.941.019-1.4.063a15.185,15.185,0,0,0,0,30.239c.463.044.931.063,1.4.063.185,0,.366,0,.546-.01a15.183,15.183,0,0,0,0-30.346m0,26.552c-.18.01-.361.015-.546.015a11.135,11.135,0,0,1-1.4-.087,11.393,11.393,0,0,1,0-22.612,11.135,11.135,0,0,1,1.4-.088c.185,0,.366,0,.546.015a11.392,11.392,0,0,1,0,22.758" transform="translate(47.732 506.769)" fill="#7f0f98"/>
    </g>
    <g id="Grupo_180667" data-name="Grupo 180667" transform="translate(256)">
      <g id="Grupo_180651-2" data-name="Grupo 180651" transform="translate(319.915 821.232)">
        <g id="Grupo_175269-2" data-name="Grupo 175269" clip-path="url(#clip-path)">
          <rect id="Rectángulo_58132-2" data-name="Rectángulo 58132" width="19.124" height="19.124" transform="translate(-6.743 6.19) rotate(-42.553)" fill="#c148dc"/>
        </g>
      </g>
      <path id="Trazado_216472-2" data-name="Trazado 216472" d="M279.495,306.241c-.18,0-.361-.01-.546-.01-.473,0-.941.019-1.4.063a15.185,15.185,0,0,0,0,30.239c.463.044.931.063,1.4.063.185,0,.366,0,.546-.01a15.183,15.183,0,0,0,0-30.346m0,26.552c-.18.01-.361.015-.546.015a11.135,11.135,0,0,1-1.4-.087,11.393,11.393,0,0,1,0-22.612,11.135,11.135,0,0,1,1.4-.088c.185,0,.366,0,.546.015a11.392,11.392,0,0,1,0,22.758" transform="translate(47.732 506.769)" fill="#7f0f98"/>
    </g>
    <g id="Grupo_180668" data-name="Grupo 180668" transform="translate(719)">
      <g id="Grupo_180651-3" data-name="Grupo 180651" transform="translate(319.915 821.232)">
        <g id="Grupo_175269-3" data-name="Grupo 175269" clip-path="url(#clip-path)">
          <rect id="Rectángulo_58132-3" data-name="Rectángulo 58132" width="19.124" height="19.124" transform="translate(-6.743 6.19) rotate(-42.553)" fill="#c148dc"/>
        </g>
      </g>
      <path id="Trazado_216472-3" data-name="Trazado 216472" d="M279.495,306.241c-.18,0-.361-.01-.546-.01-.473,0-.941.019-1.4.063a15.185,15.185,0,0,0,0,30.239c.463.044.931.063,1.4.063.185,0,.366,0,.546-.01a15.183,15.183,0,0,0,0-30.346m0,26.552c-.18.01-.361.015-.546.015a11.135,11.135,0,0,1-1.4-.087,11.393,11.393,0,0,1,0-22.612,11.135,11.135,0,0,1,1.4-.088c.185,0,.366,0,.546.015a11.392,11.392,0,0,1,0,22.758" transform="translate(47.732 506.769)" fill="#7f0f98"/>
    </g>
    <text id="Sector_solidario" data-name="Sector solidario" transform="translate(329.5 902)" fill="#12263f" font-size="23" font-family="Roboto-Bold, Roboto" font-weight="700"><tspan x="0" y="24">Sector solidario</tspan></text>
    <text id="Organizaciones_de_economía_solidaria" data-name="Organizaciones de economía solidaria" transform="translate(684.5 901)" fill="#12263f" font-size="23" font-family="Roboto-Bold, Roboto" font-weight="700"><tspan x="0" y="24">Organizaciones de </tspan></text>
    <text id="Organizaciones_de_economía_solidaria_en_Colombia" data-name="Organizaciones de economía solidaria en Colombia" transform="translate(453.5 523)" fill="#12263f" font-size="28" font-family="Roboto-Bold, Roboto" font-weight="700"><tspan x="0" y="29">Organizaciones de economía solidaria en Colombia</tspan></text>
    <text id="Valores" transform="translate(1167.5 900)" fill="#12263f" font-size="23" font-family="Roboto-Bold, Roboto" font-weight="700"><tspan x="0" y="24">Valores</tspan></text>
    <text id="Principios" transform="translate(1154.5 984)" fill="#12263f" font-size="23" font-family="Roboto-Bold, Roboto" font-weight="700"><tspan x="0" y="24">Principios</tspan></text>
    <text id="Fines" transform="translate(1177.5 1069)" fill="#12263f" font-size="23" font-family="Roboto-Bold, Roboto" font-weight="700"><tspan x="0" y="24">Fines</tspan></text>
    <text id="Organizaciones_solidarias_de_desarrollo" data-name="Organizaciones solidarias de desarrollo" transform="translate(679.5 1014)" fill="#12263f" font-size="23" font-family="Roboto-Bold, Roboto" font-weight="700"><tspan x="0" y="24">Organizaciones </tspan></text>
    <text id="Organizaciones_de_carácter_asociativo_y_solidario_sin_ánimo_de_lucro_orientadas_a_satisfacer_las_necesidades_humanas_y_soportadas_bajo_el_principio_de_la_solidaridad." data-name="Organizaciones de carácter asociativo y solidario sin ánimo de lucro, orientadas a satisfacer las necesidades humanas y soportadas bajo el principio de la solidaridad." transform="translate(508.5 622)" fill="#12263f" font-size="23" font-family="Roboto-Regular, Roboto"><tspan x="0" y="24">Organizaciones de carácter asociativo y solidario </tspan><tspan x="0" y="48">sin ánimo de lucro, orientadas a satisfacer las </tspan><tspan x="0" y="72">necesidades humanas y soportadas bajo el </tspan></text>
    <g id="Grupo_180677" data-name="Grupo 180677" transform="translate(1600.011 2469.004) rotate(180)">
      <g id="Grupo_180671" data-name="Grupo 180671" transform="translate(209.911 1215.001)">
        <g id="Grupo_146339" data-name="Grupo 146339" transform="translate(0 -0.001)" clip-path="url(#clip-path-4)">
          <path id="Trazado_187982" data-name="Trazado 187982" d="M13.779.669a2.282,2.282,0,1,0,3.227,0,2.283,2.283,0,0,0-3.227,0" transform="translate(0.296 0.001)" fill="#13b0a3"/>
          <path id="Trazado_187983" data-name="Trazado 187983" d="M19.718,6.608a2.282,2.282,0,1,0,3.227,0,2.281,2.281,0,0,0-3.227,0" transform="translate(0.43 0.134)" fill="#13b0a3"/>
          <path id="Trazado_187984" data-name="Trazado 187984" d="M25.657,12.547a2.282,2.282,0,1,0,3.226,0,2.281,2.281,0,0,0-3.226,0" transform="translate(0.564 0.268)" fill="#13b0a3"/>
          <path id="Trazado_187985" data-name="Trazado 187985" d="M31.6,18.487a2.282,2.282,0,1,0,3.226,0,2.281,2.281,0,0,0-3.226,0" transform="translate(0.698 0.402)" fill="#13b0a3"/>
          <path id="Trazado_187986" data-name="Trazado 187986" d="M13.779,39.531a2.282,2.282,0,1,1,3.227,0,2.283,2.283,0,0,1-3.227,0" transform="translate(0.296 0.804)" fill="#13b0a3"/>
          <path id="Trazado_187987" data-name="Trazado 187987" d="M19.718,33.592a2.282,2.282,0,1,1,3.227,0,2.281,2.281,0,0,1-3.227,0" transform="translate(0.43 0.67)" fill="#13b0a3"/>
          <path id="Trazado_187988" data-name="Trazado 187988" d="M25.657,27.652a2.281,2.281,0,1,1,3.226,0,2.28,2.28,0,0,1-3.226,0" transform="translate(0.564 0.536)" fill="#13b0a3"/>
          <path id="Trazado_187989" data-name="Trazado 187989" d="M31.6,21.713a2.282,2.282,0,1,1,3.226,0,2.281,2.281,0,0,1-3.226,0" transform="translate(0.698 0.402)" fill="#13b0a3"/>
          <path id="Trazado_187990" data-name="Trazado 187990" d="M.668.669a2.282,2.282,0,1,0,3.227,0,2.283,2.283,0,0,0-3.227,0" transform="translate(0 0.001)" fill="#13b0a3"/>
          <path id="Trazado_187991" data-name="Trazado 187991" d="M6.608,6.608a2.282,2.282,0,1,0,3.227,0,2.283,2.283,0,0,0-3.227,0" transform="translate(0.134 0.134)" fill="#13b0a3"/>
          <path id="Trazado_187992" data-name="Trazado 187992" d="M12.547,12.547a2.282,2.282,0,1,0,3.227,0,2.281,2.281,0,0,0-3.227,0" transform="translate(0.268 0.268)" fill="#13b0a3"/>
          <path id="Trazado_187993" data-name="Trazado 187993" d="M18.487,18.487a2.282,2.282,0,1,0,3.226,0,2.281,2.281,0,0,0-3.226,0" transform="translate(0.402 0.402)" fill="#13b0a3"/>
          <path id="Trazado_187994" data-name="Trazado 187994" d="M.668,39.531a2.282,2.282,0,1,1,3.227,0,2.283,2.283,0,0,1-3.227,0" transform="translate(0 0.804)" fill="#13b0a3"/>
          <path id="Trazado_187995" data-name="Trazado 187995" d="M6.608,33.592a2.282,2.282,0,1,1,3.227,0,2.283,2.283,0,0,1-3.227,0" transform="translate(0.134 0.67)" fill="#13b0a3"/>
          <path id="Trazado_187996" data-name="Trazado 187996" d="M12.547,27.652a2.282,2.282,0,1,1,3.227,0,2.28,2.28,0,0,1-3.227,0" transform="translate(0.268 0.536)" fill="#13b0a3"/>
          <path id="Trazado_187997" data-name="Trazado 187997" d="M18.487,21.713a2.282,2.282,0,1,1,3.226,0,2.281,2.281,0,0,1-3.226,0" transform="translate(0.402 0.402)" fill="#13b0a3"/>
        </g>
      </g>
      <g id="Grupo_180672" data-name="Grupo 180672" transform="translate(237.911 1215.001)">
        <g id="Grupo_146339-2" data-name="Grupo 146339" transform="translate(0 -0.001)" clip-path="url(#clip-path-4)">
          <path id="Trazado_187982-2" data-name="Trazado 187982" d="M13.779.669a2.282,2.282,0,1,0,3.227,0,2.283,2.283,0,0,0-3.227,0" transform="translate(0.296 0.001)" fill="#13b0a3"/>
          <path id="Trazado_187983-2" data-name="Trazado 187983" d="M19.718,6.608a2.282,2.282,0,1,0,3.227,0,2.281,2.281,0,0,0-3.227,0" transform="translate(0.43 0.134)" fill="#13b0a3"/>
          <path id="Trazado_187984-2" data-name="Trazado 187984" d="M25.657,12.547a2.282,2.282,0,1,0,3.226,0,2.281,2.281,0,0,0-3.226,0" transform="translate(0.564 0.268)" fill="#13b0a3"/>
          <path id="Trazado_187985-2" data-name="Trazado 187985" d="M31.6,18.487a2.282,2.282,0,1,0,3.226,0,2.281,2.281,0,0,0-3.226,0" transform="translate(0.698 0.402)" fill="#13b0a3"/>
          <path id="Trazado_187986-2" data-name="Trazado 187986" d="M13.779,39.531a2.282,2.282,0,1,1,3.227,0,2.283,2.283,0,0,1-3.227,0" transform="translate(0.296 0.804)" fill="#13b0a3"/>
          <path id="Trazado_187987-2" data-name="Trazado 187987" d="M19.718,33.592a2.282,2.282,0,1,1,3.227,0,2.281,2.281,0,0,1-3.227,0" transform="translate(0.43 0.67)" fill="#13b0a3"/>
          <path id="Trazado_187988-2" data-name="Trazado 187988" d="M25.657,27.652a2.281,2.281,0,1,1,3.226,0,2.28,2.28,0,0,1-3.226,0" transform="translate(0.564 0.536)" fill="#13b0a3"/>
          <path id="Trazado_187989-2" data-name="Trazado 187989" d="M31.6,21.713a2.282,2.282,0,1,1,3.226,0,2.281,2.281,0,0,1-3.226,0" transform="translate(0.698 0.402)" fill="#13b0a3"/>
          <path id="Trazado_187990-2" data-name="Trazado 187990" d="M.668.669a2.282,2.282,0,1,0,3.227,0,2.283,2.283,0,0,0-3.227,0" transform="translate(0 0.001)" fill="#13b0a3"/>
          <path id="Trazado_187991-2" data-name="Trazado 187991" d="M6.608,6.608a2.282,2.282,0,1,0,3.227,0,2.283,2.283,0,0,0-3.227,0" transform="translate(0.134 0.134)" fill="#13b0a3"/>
          <path id="Trazado_187992-2" data-name="Trazado 187992" d="M12.547,12.547a2.282,2.282,0,1,0,3.227,0,2.281,2.281,0,0,0-3.227,0" transform="translate(0.268 0.268)" fill="#13b0a3"/>
          <path id="Trazado_187993-2" data-name="Trazado 187993" d="M18.487,18.487a2.282,2.282,0,1,0,3.226,0,2.281,2.281,0,0,0-3.226,0" transform="translate(0.402 0.402)" fill="#13b0a3"/>
          <path id="Trazado_187994-2" data-name="Trazado 187994" d="M.668,39.531a2.282,2.282,0,1,1,3.227,0,2.283,2.283,0,0,1-3.227,0" transform="translate(0 0.804)" fill="#13b0a3"/>
          <path id="Trazado_187995-2" data-name="Trazado 187995" d="M6.608,33.592a2.282,2.282,0,1,1,3.227,0,2.283,2.283,0,0,1-3.227,0" transform="translate(0.134 0.67)" fill="#13b0a3"/>
          <path id="Trazado_187996-2" data-name="Trazado 187996" d="M12.547,27.652a2.282,2.282,0,1,1,3.227,0,2.28,2.28,0,0,1-3.227,0" transform="translate(0.268 0.536)" fill="#13b0a3"/>
          <path id="Trazado_187997-2" data-name="Trazado 187997" d="M18.487,21.713a2.282,2.282,0,1,1,3.226,0,2.281,2.281,0,0,1-3.226,0" transform="translate(0.402 0.402)" fill="#13b0a3"/>
        </g>
      </g>
    </g>
    <g id="Grupo_180678" data-name="Grupo 180678" transform="translate(-1825.5 1465) rotate(-90)">
      <circle id="Elipse_5386" data-name="Elipse 5386" cx="5" cy="5" r="5" transform="translate(236 2102) rotate(90)" fill="#13b0a3"/>
      <circle id="Elipse_5387" data-name="Elipse 5387" cx="5" cy="5" r="5" transform="translate(236 2088) rotate(90)" fill="#13b0a3"/>
      <circle id="Elipse_5388" data-name="Elipse 5388" cx="5" cy="5" r="5" transform="translate(236 2074) rotate(90)" fill="#13b0a3"/>
      <circle id="Elipse_5389" data-name="Elipse 5389" cx="5" cy="5" r="5" transform="translate(236 2058) rotate(90)" fill="#13b0a3"/>
      <circle id="Elipse_5390" data-name="Elipse 5390" cx="5" cy="5" r="5" transform="translate(236 2028) rotate(90)" fill="#13b0a3"/>
    </g>
  </g>
</svg>
