<svg xmlns="http://www.w3.org/2000/svg" width="41.7" height="15.935" viewBox="0 0 41.7 15.935">
  <g id="Grupo_179668" data-name="Grupo 179668" transform="translate(0 15.935) rotate(-90)">
    <g id="Grupo_179668-2" data-name="Grupo 179668" transform="translate(0)">
      <path id="Trazado_187984" data-name="Trazado 187984" d="M.669,3.9a2.282,2.282,0,1,1,3.226,0,2.281,2.281,0,0,1-3.226,0" transform="translate(3.227 35.245) rotate(45)" fill="#00a3be"/>
      <path id="Trazado_187985" data-name="Trazado 187985" d="M.669,3.9a2.282,2.282,0,1,1,3.226,0,2.281,2.281,0,0,1-3.226,0" transform="translate(12.708 35.245) rotate(45)" fill="#00a3be"/>
      <path id="Trazado_187986" data-name="Trazado 187986" d="M.668.668A2.282,2.282,0,1,0,3.9.668a2.283,2.283,0,0,0-3.227,0" transform="translate(12.707 9.48) rotate(45)" fill="#00a3be"/>
      <path id="Trazado_187987" data-name="Trazado 187987" d="M.669.668A2.282,2.282,0,1,0,3.9.668a2.281,2.281,0,0,0-3.227,0" transform="translate(12.707 18.068) rotate(45)" fill="#00a3be"/>
      <path id="Trazado_187988" data-name="Trazado 187988" d="M.669.669a2.281,2.281,0,1,0,3.226,0,2.28,2.28,0,0,0-3.226,0" transform="translate(12.707 26.656) rotate(45)" fill="#00a3be"/>
      <path id="Trazado_187989" data-name="Trazado 187989" d="M.669.669a2.282,2.282,0,1,0,3.226,0,2.281,2.281,0,0,0-3.226,0" transform="translate(12.707 35.245) rotate(45)" fill="#00a3be"/>
      <path id="Trazado_187993" data-name="Trazado 187993" d="M.669,3.9a2.282,2.282,0,1,1,3.226,0,2.281,2.281,0,0,1-3.226,0" transform="translate(3.228 25.766) rotate(45)" fill="#00a3be"/>
      <path id="Trazado_187994" data-name="Trazado 187994" d="M.668.668A2.282,2.282,0,1,0,3.9.668a2.283,2.283,0,0,0-3.227,0" transform="translate(3.227 0) rotate(45)" fill="#00a3be"/>
      <path id="Trazado_187995" data-name="Trazado 187995" d="M.668.668A2.282,2.282,0,1,0,3.9.668a2.283,2.283,0,0,0-3.227,0" transform="translate(3.228 8.589) rotate(45)" fill="#00a3be"/>
      <path id="Trazado_187996" data-name="Trazado 187996" d="M.669.669A2.282,2.282,0,1,0,3.9.669a2.28,2.28,0,0,0-3.227,0" transform="translate(3.227 17.177) rotate(45)" fill="#00a3be"/>
      <path id="Trazado_187997" data-name="Trazado 187997" d="M.669.669a2.282,2.282,0,1,0,3.226,0,2.281,2.281,0,0,0-3.226,0" transform="translate(3.228 25.766) rotate(45)" fill="#00a3be"/>
    </g>
  </g>
</svg>
