<svg xmlns="http://www.w3.org/2000/svg" xmlns:xlink="http://www.w3.org/1999/xlink" width="70" height="70" viewBox="0 0 70 70">
  <defs>
    <clipPath id="clip-path">
      <rect id="Rectángulo_56683" data-name="Rectángulo 56683" width="42.698" height="42.261" fill="none"/>
    </clipPath>
  </defs>
  <g id="Grupo_180803" data-name="Grupo 180803" transform="translate(-765 -4047)">
    <circle id="Elipse_5409" data-name="Elipse 5409" cx="35" cy="35" r="35" transform="translate(765 4047)" fill="#e8e8e8"/>
    <g id="Grupo_179230" data-name="Grupo 179230" transform="translate(779 4061)">
      <g id="Grupo_179229" data-name="Grupo 179229" clip-path="url(#clip-path)">
        <path id="Trazado_210769" data-name="Trazado 210769" d="M0,218.861c.069-.267.124-.539.21-.8a4.774,4.774,0,0,1,3.51-3.293c.094-.025.189-.044.284-.068.026-.007.051-.02.133-.054v-8.264H13.76v8.206h2.754v-8.194h9.654v8.2h2.755v-8.212h9.623v8.274c.22.051.406.09.589.138a4.8,4.8,0,0,1,3.557,4.519,12.073,12.073,0,0,1-.166,2.69,4.687,4.687,0,0,1-4.437,3.63c-.153.007-.306.008-.459.008q-16.284,0-32.568,0a4.764,4.764,0,0,1-4.668-2.94A9.737,9.737,0,0,1,0,221.447v-2.586m12.379-11.083H11.01v2.69H6.881v-2.688H5.534v6.81h6.844Zm17.95-.011v6.827h6.848v-6.817H35.809v2.695H31.677v-2.7Zm-6.911,2.709h-4.15v-2.7H17.943V214.6h6.814v-6.823h-1.34Zm-4.654,13.779a4.917,4.917,0,0,1-.021-8.212H11.52a4.866,4.866,0,0,1-.019,8.212Zm12.458,0a4.864,4.864,0,0,1-.041-8.217H23.912a4.851,4.851,0,0,1-.028,8.217ZM5.51,220.134A3.446,3.446,0,1,0,8.971,216.7a3.462,3.462,0,0,0-3.461,3.438m31.687.018a3.446,3.446,0,1,0-3.468,3.434,3.46,3.46,0,0,0,3.468-3.434m-19.277-.032a3.434,3.434,0,1,0,3.465-3.424,3.443,3.443,0,0,0-3.465,3.424M36.4,215.984a5.132,5.132,0,0,1,2.167,4.179,4.867,4.867,0,0,1-2.284,4.1c.688,0,1.269.033,1.845-.006a3.314,3.314,0,0,0,3.085-2.648,10.313,10.313,0,0,0,.09-2.4,3.288,3.288,0,0,0-2.711-3.108,17.022,17.022,0,0,0-2.191-.12M6.362,224.211a4.78,4.78,0,0,1-2.219-4.09,4.857,4.857,0,0,1,2.276-4.1c-.648,0-1.188-.012-1.728,0a3.39,3.39,0,0,0-3.286,3.152,15.416,15.416,0,0,0,0,1.915,3.316,3.316,0,0,0,2.817,3.107,15.4,15.4,0,0,0,2.142.017M9.63,207.778H8.287v1.3H9.63Zm24.793,0H33.081v1.316h1.342Zm-13.736,1.3H22v-1.3H20.687Z" transform="translate(0 -183.385)"/>
        <path id="Trazado_210770" data-name="Trazado 210770" d="M135.082,58.706l2.665,2.662a2.326,2.326,0,0,1-.21.417.92.92,0,0,0,.014,1.179,1.1,1.1,0,0,0,.614.345c.412.1.535.3.517.723-.038.915-.029,1.834,0,2.75.01.351-.085.544-.44.6a.886.886,0,0,0-.851.759,1.107,1.107,0,0,0,.017.5,6.4,6.4,0,0,0,.343.717l-2.659,2.666a2.055,2.055,0,0,1-.417-.208.91.91,0,0,0-1.177.011,1.078,1.078,0,0,0-.352.609c-.1.41-.291.543-.719.526-.943-.038-1.889-.024-2.833,0a.443.443,0,0,1-.5-.357c-.108-.3-.087-.661-.5-.844a1.017,1.017,0,0,0-1.076.059,3.621,3.621,0,0,1-.422.21l-2.655-2.666a2.159,2.159,0,0,1,.2-.411.9.9,0,0,0-.011-1.176,1.328,1.328,0,0,0-.688-.38.512.512,0,0,1-.44-.61c.025-1.082.009-2.165.009-3.23.39-.331.991-.185,1.249-.8s-.238-.944-.322-1.457c.807-.8,1.627-1.632,2.469-2.437a.527.527,0,0,1,.453-.016c.387.161.71.389,1.195.152a.921.921,0,0,0,.5-.741c.089-.386.278-.489.662-.474.846.032,1.694.01,2.542.01.707,0,.716,0,.923.663a.806.806,0,0,0,.493.547.868.868,0,0,0,.927-.047,4.467,4.467,0,0,1,.486-.246m1.064,2.9c-.413-.4-.787-.764-1.177-1.117a.3.3,0,0,0-.279-.032.958.958,0,0,1-1.21-.039,2.713,2.713,0,0,0-.812-.311c-.32-.075-.529-.222-.571-.558s-.241-.416-.552-.39a5.394,5.394,0,0,1-.916,0c-.316-.028-.5.067-.549.4a.617.617,0,0,1-.534.542,3.894,3.894,0,0,0-1.033.426.707.707,0,0,1-.872,0,.362.362,0,0,0-.562.084,6.085,6.085,0,0,1-.707.706c-.243.2-.314.4-.113.661a.624.624,0,0,1,.011.76c-.21.387-.334.819-.513,1.224-.055.125-.16.308-.261.322-.6.081-.662.456-.606.946.03.261-.013.529.015.79.012.107.113.279.194.292.511.079.7.415.794.869a1.387,1.387,0,0,0,.216.537,1.031,1.031,0,0,1,.011,1.358c-.013.017,0,.051,0,.126.335.327.687.682,1.055,1.019.072.066.259.119.312.076.46-.363.863-.183,1.286.073a1.952,1.952,0,0,0,.657.253.714.714,0,0,1,.675.657c.031.23.164.313.4.3a7.074,7.074,0,0,1,1.082,0,.4.4,0,0,0,.5-.389.63.63,0,0,1,.535-.542,4.309,4.309,0,0,0,1.036-.419.754.754,0,0,1,.88-.009.468.468,0,0,0,.427.019c.4-.34.765-.719,1.166-1.107a1.009,1.009,0,0,1-.074-1.422,1.845,1.845,0,0,0,.268-.695.7.7,0,0,1,.635-.646c.252-.037.33-.188.317-.439-.02-.388.011-.779-.015-1.166-.008-.119-.116-.316-.2-.33a.885.885,0,0,1-.773-.835,1.392,1.392,0,0,0-.2-.5,1.054,1.054,0,0,1,.05-1.487" transform="translate(-109.735 -51.34)"/>
        <path id="Trazado_210771" data-name="Trazado 210771" d="M67.969,59.354l-1.738.681-.514-1.266c.921-.37,1.818-.734,2.717-1.089.4-.157.854-.487,1.187-.394s.554.612.812.953c.528.7,1.048,1.4,1.595,2.126l-1.1.828L69.52,59.318a12.086,12.086,0,0,0-.889,9.506c-.215.074-.419.146-.624.213s-.422.132-.676.211a13.3,13.3,0,0,1,.638-9.894" transform="translate(-58.394 -50.888)"/>
        <path id="Trazado_210772" data-name="Trazado 210772" d="M263.385,96.894a12.092,12.092,0,0,0,.887-9.512l1.3-.416a13.311,13.311,0,0,1-.645,9.9c.366-.147.625-.252.886-.355s.54-.211.859-.335l.514,1.269-1.825.732c-.618.247-1.233.5-1.858.732a.414.414,0,0,1-.373-.075c-.755-.977-1.492-1.968-2.259-2.988l1.1-.825,1.411,1.871" transform="translate(-231.805 -77.274)"/>
        <path id="Trazado_210773" data-name="Trazado 210773" d="M161.581,6.31l-.823-1.1,1.87-1.414a12.079,12.079,0,0,0-9.515-.89l-.417-1.3a13.317,13.317,0,0,1,9.9.637L161.914.511,163.171,0c.069.159.137.3.2.451.422,1.055.849,2.109,1.256,3.171.047.121.039.358-.039.419-.984.765-1.986,1.507-3,2.271" transform="translate(-135.681)"/>
        <path id="Trazado_210774" data-name="Trazado 210774" d="M282.318,60.91l.726,1.444-1.252.557-.662-1.306,1.189-.695" transform="translate(-249.802 -54.123)"/>
        <path id="Trazado_210775" data-name="Trazado 210775" d="M86.83,174.228l-1.189.682-.733-1.436,1.258-.554.664,1.308" transform="translate(-75.447 -153.651)"/>
        <path id="Trazado_210776" data-name="Trazado 210776" d="M128.694,20.423l-1.3.658L126.7,19.9l1.44-.737.555,1.26" transform="translate(-112.581 -17.028)"/>
        <path id="Trazado_210777" data-name="Trazado 210777" d="M63.957,315.516a2.059,2.059,0,1,1,2.056-2.064,2.051,2.051,0,0,1-2.056,2.064m.006-2.75a.707.707,0,0,0-.7.677.687.687,0,1,0,.7-.677" transform="translate(-54.999 -276.698)"/>
        <path id="Trazado_210778" data-name="Trazado 210778" d="M286.464,315.515a2.059,2.059,0,1,1,2.057-2.062,2.054,2.054,0,0,1-2.057,2.062m.689-2.048a.707.707,0,0,0-.675-.7.687.687,0,1,0,.675.7" transform="translate(-252.712 -276.698)"/>
        <path id="Trazado_210779" data-name="Trazado 210779" d="M175.1,311.4a2.059,2.059,0,1,1-2.057,2.07,2.067,2.067,0,0,1,2.057-2.07m.69,2.038a.677.677,0,1,0-.67.7.68.68,0,0,0,.67-.7" transform="translate(-153.758 -276.699)"/>
        <path id="Trazado_210780" data-name="Trazado 210780" d="M158.692,97a4.13,4.13,0,1,1,4.128-4.137A4.127,4.127,0,0,1,158.692,97m0-6.869a2.752,2.752,0,1,0,2.754,2.746,2.745,2.745,0,0,0-2.754-2.746" transform="translate(-137.337 -78.854)"/>
      </g>
    </g>
  </g>
</svg>
